# Blender 4.0.0
# www.blender.org
o Cube.001
v 2.276943 0.901937 -1.000000
v 2.276943 0.000000 -1.000000
v 2.276943 0.901937 1.000000
v 2.276943 0.000000 1.000000
v -1.745474 1.640505 -1.000000
v -1.745474 0.000000 -1.000000
v -1.745474 1.640505 1.000000
v -1.745474 0.000000 1.000000
v 0.116975 1.640505 -1.000000
v 1.163141 0.901937 1.000000
v 0.116975 1.640505 1.000000
v 1.163141 0.901937 -1.000000
vn -0.0000 1.0000 -0.0000
vn -0.0000 -0.0000 -1.0000
vn -1.0000 -0.0000 -0.0000
vn 1.0000 -0.0000 -0.0000
vn 0.5767 0.8169 -0.0000
vt 0.759246 0.500000
vt 0.875000 0.500000
vt 0.875000 0.750000
vt 0.759246 0.750000
vt 0.000000 0.000000
vt 0.625000 0.250000
vt 0.740754 0.481509
vt 0.750000 0.500000
vt 0.625000 0.500000
vt 0.375000 0.000000
vt 0.625000 0.000000
vt 0.375000 0.250000
vt 0.375000 0.500000
vt 0.625000 0.750000
vt 0.375000 0.750000
vt 0.750000 0.750000
s 0
f 9/1/1 5/2/1 7/3/1 11/4/1
f 2/5/2 6/5/2 5/6/2 9/7/2 12/8/2 1/9/2
f 8/10/3 7/11/3 5/6/3 6/12/3
f 2/13/4 1/9/4 3/14/4 4/15/4
f 2/5/1 6/5/1 8/5/1 4/5/1
f 4/5/2 8/5/2 7/5/2 11/5/2 10/5/2 3/5/2
f 12/8/5 9/1/5 11/4/5 10/16/5
f 1/9/1 12/8/1 10/16/1 3/14/1
